<svg width="32" height="32" viewBox="0 0 32 32" fill="none" xmlns="http://www.w3.org/2000/svg">
<path d="M2.58536 17.4132C1.80488 16.6327 1.80488 15.3673 2.58536 14.5868L14.5868 2.58536C15.3673 1.80488 16.6327 1.80488 17.4132 2.58536L29.4146 14.5868C30.1951 15.3673 30.1951 16.6327 29.4146 17.4132L17.4132 29.4146C16.6327 30.1951 15.3673 30.1951 14.5868 29.4146L2.58536 17.4132Z" fill="#EE513B"/>
<path d="M12.1494 5.06165L10.9341 6.27699L14.073 9.41589C13.946 9.68831 13.8751 9.99213 13.8751 10.3125C13.8751 11.2221 14.4466 11.9982 15.2501 12.3014V19.9799C14.4466 20.283 13.8751 21.0592 13.8751 21.9688C13.8751 23.1424 14.8265 24.0938 16.0001 24.0938C17.1737 24.0938 18.1251 23.1424 18.1251 21.9688C18.1251 21.1441 17.6554 20.4292 16.9689 20.0769V12.3118L19.9694 15.3123C19.8486 15.5792 19.7814 15.8755 19.7814 16.1875C19.7814 17.3611 20.7328 18.3125 21.9064 18.3125C23.08 18.3125 24.0314 17.3611 24.0314 16.1875C24.0314 15.0139 23.08 14.0625 21.9064 14.0625C21.6783 14.0625 21.4586 14.0984 21.2527 14.1649L18.0302 10.9424C18.0919 10.7434 18.1251 10.5318 18.1251 10.3125C18.1251 9.1389 17.1737 8.1875 16.0001 8.1875C15.7808 8.1875 15.5692 8.22073 15.3702 8.28242L12.1494 5.06165Z" fill="white"/>
</svg>
